<svg width="319" height="319" viewBox="0 0 319 319" fill="none" xmlns="http://www.w3.org/2000/svg">
<rect width="319" height="319" fill="#FCD5E5"/>
<path d="M159.5 319C247.589 319 319 247.589 319 159.5C319 71.4106 247.589 0 159.5 0C71.4106 0 0 71.4106 0 159.5C0 247.589 71.4106 319 159.5 319Z" fill="#E34C71"/>
<path d="M28.695 149.6H47.479V152.32H39.543V172H36.631V152.32H28.695V149.6ZM50.2445 148.64H52.9965V157.888C53.3378 157.184 53.8925 156.619 54.6605 156.192C55.4498 155.744 56.3672 155.52 57.4125 155.52C59.0765 155.52 60.3672 156.064 61.2845 157.152C62.2018 158.24 62.6605 159.712 62.6605 161.568V172H59.8765V162.016C59.8765 160.8 59.5992 159.861 59.0445 159.2C58.4898 158.539 57.7218 158.208 56.7405 158.208C55.6312 158.208 54.7245 158.677 54.0205 159.616C53.3378 160.533 52.9965 161.781 52.9965 163.36V172H50.2445V148.64ZM73.7398 155.52C75.9798 155.52 77.7611 156.235 79.0838 157.664C80.4064 159.093 81.0678 161.109 81.0678 163.712V165.024H68.8118C68.9184 166.496 69.4198 167.659 70.3158 168.512C71.2331 169.365 72.3958 169.792 73.8038 169.792C76.0438 169.792 77.4944 168.917 78.1558 167.168H80.9078C80.3958 168.811 79.5211 170.091 78.2838 171.008C77.0678 171.904 75.5531 172.352 73.7398 172.352C71.4358 172.352 69.5691 171.584 68.1398 170.048C66.6891 168.491 65.9638 166.464 65.9638 163.968C65.9638 161.493 66.6784 159.477 68.1078 157.92C69.5584 156.32 71.4358 155.52 73.7398 155.52ZM77.0038 159.296C76.1718 158.485 75.0838 158.08 73.7398 158.08C72.3958 158.08 71.2864 158.496 70.4118 159.328C69.5371 160.139 69.0144 161.216 68.8438 162.56H78.2838C78.2624 161.195 77.8358 160.107 77.0038 159.296ZM96.485 155.424C98.1917 155.424 99.589 155.893 100.677 156.832C101.786 157.771 102.373 159.008 102.437 160.544H98.309C98.2877 159.307 97.669 158.688 96.453 158.688C95.877 158.688 95.429 158.837 95.109 159.136C94.8103 159.413 94.661 159.797 94.661 160.288C94.661 160.8 94.8637 161.195 95.269 161.472C95.6743 161.728 96.421 161.952 97.509 162.144C99.3863 162.464 100.73 163.019 101.541 163.808C102.373 164.597 102.789 165.685 102.789 167.072C102.789 168.757 102.213 170.059 101.061 170.976C99.909 171.893 98.3943 172.352 96.517 172.352C94.5757 172.352 93.0397 171.883 91.909 170.944C90.7997 170.005 90.2237 168.715 90.181 167.072H94.277C94.3197 168.395 95.0983 169.056 96.613 169.056C97.957 169.056 98.629 168.544 98.629 167.52C98.629 166.987 98.4157 166.571 97.989 166.272C97.5837 165.973 96.8157 165.717 95.685 165.504C93.9143 165.205 92.6023 164.661 91.749 163.872C90.917 163.083 90.501 162.027 90.501 160.704C90.501 159.189 91.0237 157.941 92.069 156.96C93.1357 155.936 94.6077 155.424 96.485 155.424ZM112.964 155.424C115.268 155.424 117.092 156.16 118.436 157.632C119.801 159.083 120.484 161.163 120.484 163.872V165.152H109.188C109.252 166.24 109.636 167.125 110.34 167.808C111.044 168.469 111.961 168.8 113.092 168.8C114.777 168.8 115.865 168.171 116.356 166.912H120.388C119.321 170.539 116.846 172.352 112.964 172.352C110.553 172.352 108.601 171.584 107.108 170.048C105.636 168.491 104.9 166.443 104.9 163.904C104.9 161.408 105.646 159.381 107.14 157.824C108.654 156.224 110.596 155.424 112.964 155.424ZM109.22 162.272H116.292C116.27 161.248 115.95 160.427 115.332 159.808C114.713 159.189 113.892 158.88 112.868 158.88C111.865 158.88 111.033 159.189 110.372 159.808C109.71 160.427 109.326 161.248 109.22 162.272ZM131.026 155.424C133.33 155.424 135.154 156.16 136.498 157.632C137.864 159.083 138.546 161.163 138.546 163.872V165.152H127.25C127.314 166.24 127.698 167.125 128.402 167.808C129.106 168.469 130.024 168.8 131.154 168.8C132.84 168.8 133.928 168.171 134.418 166.912H138.45C137.384 170.539 134.909 172.352 131.026 172.352C128.616 172.352 126.664 171.584 125.17 170.048C123.698 168.491 122.962 166.443 122.962 163.904C122.962 161.408 123.709 159.381 125.202 157.824C126.717 156.224 128.658 155.424 131.026 155.424ZM127.282 162.272H134.354C134.333 161.248 134.013 160.427 133.394 159.808C132.776 159.189 131.954 158.88 130.93 158.88C129.928 158.88 129.096 159.189 128.434 159.808C127.773 160.427 127.389 161.248 127.282 162.272ZM142.053 148.64H146.213V162.336L150.949 155.776H155.909L151.141 162.592L156.741 172H152.005L148.229 165.792L146.213 168.352V172H142.053V148.64ZM165.651 155.424C167.955 155.424 169.779 156.16 171.123 157.632C172.489 159.083 173.171 161.163 173.171 163.872V165.152H161.875C161.939 166.24 162.323 167.125 163.027 167.808C163.731 168.469 164.649 168.8 165.779 168.8C167.465 168.8 168.553 168.171 169.043 166.912H173.075C172.009 170.539 169.534 172.352 165.651 172.352C163.241 172.352 161.289 171.584 159.795 170.048C158.323 168.491 157.587 166.443 157.587 163.904C157.587 161.408 158.334 159.381 159.827 157.824C161.342 156.224 163.283 155.424 165.651 155.424ZM161.907 162.272H168.979C168.958 161.248 168.638 160.427 168.019 159.808C167.401 159.189 166.579 158.88 165.555 158.88C164.553 158.88 163.721 159.189 163.059 159.808C162.398 160.427 162.014 161.248 161.907 162.272ZM185.382 155.616V159.776C184.06 159.776 182.982 160.096 182.15 160.736C181.34 161.376 180.902 162.379 180.838 163.744V172H176.678V155.776H180.262L180.646 158.368C181.329 156.533 182.908 155.616 185.382 155.616ZM193.579 155.424C195.285 155.424 196.683 155.893 197.771 156.832C198.88 157.771 199.467 159.008 199.531 160.544H195.403C195.381 159.307 194.763 158.688 193.547 158.688C192.971 158.688 192.523 158.837 192.203 159.136C191.904 159.413 191.755 159.797 191.755 160.288C191.755 160.8 191.957 161.195 192.363 161.472C192.768 161.728 193.515 161.952 194.603 162.144C196.48 162.464 197.824 163.019 198.635 163.808C199.467 164.597 199.883 165.685 199.883 167.072C199.883 168.757 199.307 170.059 198.155 170.976C197.003 171.893 195.488 172.352 193.611 172.352C191.669 172.352 190.133 171.883 189.003 170.944C187.893 170.005 187.317 168.715 187.275 167.072H191.371C191.413 168.395 192.192 169.056 193.707 169.056C195.051 169.056 195.723 168.544 195.723 167.52C195.723 166.987 195.509 166.571 195.083 166.272C194.677 165.973 193.909 165.717 192.779 165.504C191.008 165.205 189.696 164.661 188.843 163.872C188.011 163.083 187.595 162.027 187.595 160.704C187.595 159.189 188.117 157.941 189.163 156.96C190.229 155.936 191.701 155.424 193.579 155.424ZM216.843 155.52C219.233 155.52 221.185 156.309 222.699 157.888C224.235 159.445 225.003 161.461 225.003 163.936C225.003 166.411 224.235 168.427 222.699 169.984C221.185 171.563 219.233 172.352 216.843 172.352C214.433 172.352 212.459 171.563 210.923 169.984C209.409 168.405 208.651 166.389 208.651 163.936C208.651 161.483 209.409 159.467 210.923 157.888C212.459 156.309 214.433 155.52 216.843 155.52ZM216.875 158.08C215.254 158.08 213.953 158.635 212.971 159.744C211.99 160.811 211.499 162.208 211.499 163.936C211.499 165.621 211.99 167.019 212.971 168.128C213.953 169.237 215.254 169.792 216.875 169.792C218.454 169.792 219.723 169.237 220.683 168.128C221.665 167.019 222.155 165.621 222.155 163.936C222.155 162.208 221.665 160.811 220.683 159.744C219.723 158.635 218.454 158.08 216.875 158.08ZM234.348 148.352C235.202 148.352 235.927 148.48 236.524 148.736V151.232C235.927 150.976 235.276 150.848 234.572 150.848C233.058 150.848 232.3 151.723 232.3 153.472V155.872H236.3V158.4H232.3V172H229.516V158.4H226.604V155.872H229.516V153.408C229.516 151.808 229.932 150.571 230.764 149.696C231.618 148.8 232.812 148.352 234.348 148.352ZM245.903 155.872H248.655V173.76C248.655 177.408 247.055 179.232 243.855 179.232C243.023 179.232 242.319 179.147 241.743 178.976V176.448C242.298 176.619 242.863 176.704 243.439 176.704C244.335 176.704 244.964 176.459 245.327 175.968C245.711 175.499 245.903 174.741 245.903 173.696V155.872ZM249.199 150.912C249.199 151.424 249.007 151.861 248.623 152.224C248.26 152.587 247.812 152.768 247.279 152.768C246.746 152.768 246.298 152.587 245.935 152.224C245.572 151.861 245.391 151.424 245.391 150.912C245.391 150.379 245.572 149.931 245.935 149.568C246.298 149.205 246.746 149.024 247.279 149.024C247.812 149.024 248.26 149.205 248.623 149.568C249.007 149.931 249.199 150.379 249.199 150.912ZM260.5 155.52C262.889 155.52 264.841 156.309 266.356 157.888C267.892 159.445 268.66 161.461 268.66 163.936C268.66 166.411 267.892 168.427 266.356 169.984C264.841 171.563 262.889 172.352 260.5 172.352C258.089 172.352 256.116 171.563 254.58 169.984C253.065 168.405 252.308 166.389 252.308 163.936C252.308 161.483 253.065 159.467 254.58 157.888C256.116 156.309 258.089 155.52 260.5 155.52ZM260.532 158.08C258.91 158.08 257.609 158.635 256.628 159.744C255.646 160.811 255.156 162.208 255.156 163.936C255.156 165.621 255.646 167.019 256.628 168.128C257.609 169.237 258.91 169.792 260.532 169.792C262.11 169.792 263.38 169.237 264.34 168.128C265.321 167.019 265.812 165.621 265.812 163.936C265.812 162.208 265.321 160.811 264.34 159.744C263.38 158.635 262.11 158.08 260.532 158.08ZM282.108 155.872H285.084L276.284 178.88H273.372L276.06 171.776L270.012 155.872H272.956L277.212 167.456L277.532 168.672L277.852 167.456L282.108 155.872Z" fill="#FCFBF8"/>
</svg>
